<svg xmlns="http://www.w3.org/2000/svg" viewBox="0 0 24 24" fill="currentColor">
  <title>F5 Activity Bar</title>
  <rect x="8" y="2" width="8" height="1"/>
  <rect x="6" y="3" width="12" height="1"/>
  <rect x="4" y="4" width="3" height="1"/>
  <rect x="12" y="4" width="2" height="1"/>
  <rect x="3" y="5" width="3" height="1"/>
  <rect x="9" y="5" width="1" height="1"/>
  <rect x="12" y="5" width="2" height="1"/>
  <rect x="3" y="6" width="2" height="1"/>
  <rect x="8" y="6" width="3" height="1"/>
  <rect x="12" y="6" width="1" height="1"/>
  <rect x="15" y="6" width="1" height="1"/>
  <rect x="20" y="6" width="1" height="1"/>
  <rect x="2" y="7" width="3" height="1"/>
  <rect x="8" y="7" width="5" height="1"/>
  <rect x="14" y="7" width="8" height="1"/>
  <rect x="2" y="8" width="2" height="1"/>
  <rect x="8" y="8" width="4" height="1"/>
  <rect x="14" y="8" width="8" height="1"/>
  <rect x="1" y="9" width="2" height="1"/>
  <rect x="10" y="9" width="2" height="1"/>
  <rect x="19" y="9" width="4" height="1"/>
  <rect x="1" y="10" width="4" height="1"/>
  <rect x="8" y="10" width="4" height="1"/>
  <rect x="20" y="10" width="3" height="1"/>
  <rect x="1" y="11" width="4" height="1"/>
  <rect x="8" y="11" width="4" height="1"/>
  <rect x="22" y="11" width="1" height="1"/>
  <rect x="1" y="12" width="4" height="1"/>
  <rect x="8" y="12" width="9" height="1"/>
  <rect x="22" y="12" width="1" height="1"/>
  <rect x="1" y="13" width="4" height="1"/>
  <rect x="8" y="13" width="10" height="1"/>
  <rect x="22" y="13" width="1" height="1"/>
  <rect x="1" y="14" width="4" height="1"/>
  <rect x="8" y="14" width="4" height="1"/>
  <rect x="13" y="14" width="7" height="1"/>
  <rect x="2" y="15" width="3" height="1"/>
  <rect x="8" y="15" width="3" height="1"/>
  <rect x="14" y="15" width="6" height="1"/>
  <rect x="21" y="15" width="1" height="1"/>
  <rect x="8" y="16" width="3" height="1"/>
  <rect x="14" y="16" width="5" height="1"/>
  <rect x="20" y="16" width="2" height="1"/>
  <rect x="3" y="17" width="2" height="1"/>
  <rect x="10" y="17" width="2" height="1"/>
  <rect x="19" y="17" width="2" height="1"/>
  <rect x="4" y="18" width="16" height="1"/>
  <rect x="4" y="19" width="14" height="1"/>
  <rect x="6" y="20" width="11" height="1"/>
  <rect x="8" y="21" width="8" height="1"/>
</svg>
